/* XPM */
static char * connecting1_xpm[] = {
"16 16 85 1",
" 	c None",
".	c #D1D1D1",
"+	c #CDCDCD",
"@	c #CFCFCF",
"#	c #C6C6C6",
"$	c #BCBCBC",
"%	c #B9B9B9",
"&	c #717171",
"*	c #C8C8C8",
"=	c #171717",
"-	c #2F2F2F",
";	c #000000",
">	c #B2B2B2",
",	c #666666",
"'	c #6B6B6B",
")	c #C4C4C4",
"!	c #5F5F5F",
"~	c #D4D4D4",
"{	c #C2C2C2",
"]	c #BFBFBF",
"^	c #B5B5B6",
"/	c #B0B0B2",
"(	c #B5B5B5",
"_	c #59FF59",
":	c #66FF66",
"<	c #4CFF4C",
"[	c #00E500",
"}	c #00D800",
"|	c #A0A0A4",
"1	c #C3C3C3",
"2	c #ADADAD",
"3	c #656565",
"4	c #8CFF8C",
"5	c #99FF99",
"6	c #4CF259",
"7	c #26E533",
"8	c #BBBBBD",
"9	c #CBCBCB",
"0	c #ABABAC",
"a	c #A3A3A3",
"b	c #4CE566",
"c	c #0CD826",
"d	c #33B23F",
"e	c #838384",
"f	c #26E53F",
"g	c #00BF19",
"h	c #B2B2B4",
"i	c #A9A9AB",
"j	c #7AE07A",
"k	c #6DD37A",
"l	c #69CF83",
"m	c #61C77B",
"n	c #5CC26B",
"o	c #777777",
"p	c #555555",
"q	c #838383",
"r	c #969696",
"s	c #9B9B9D",
"t	c #A7A7A7",
"u	c #333333",
"v	c #A8A8A8",
"w	c #AFAFB1",
"x	c #8D8D8E",
"y	c #7E7E7E",
"z	c #727272",
"A	c #D7D7D7",
"B	c #FFEE33",
"C	c #FFE533",
"D	c #EBAC39",
"E	c #85D191",
"F	c #8E8E8E",
"G	c #949494",
"H	c #757576",
"I	c #737374",
"J	c #5C5C5C",
"K	c #AC690C",
"L	c #BF6C00",
"M	c #6F5F43",
"N	c #CCCCCC",
"O	c #72A572",
"P	c #999999",
"Q	c #9B9B9B",
"R	c #7F7F81",
"S	c #8A8A8D",
"T	c #6F6F70",
".+@###$%&       ",
"*=-=;;;>,'      ",
")-!=;;;>,!      ",
")===;;;>,!      ",
");;;;;;>,!      ",
");;;;;~@@{]$^/& ",
"]%%%%(*_::<[}|,'",
" |123!)455567|,!",
"8)9*0a)4555bc|,!",
"*d>>ae)::<bfg|, ",
"hiiiih*jklmnn|, ",
" ,,op,>>>#aqrs  ",
"   tu  vw$x'&yyz",
" ABCDA*E*]%sFGH!",
"IJKLMJNO>>aPQGR!",
"      SRRRRRRRT!"};
