/* XPM */
static char * connecting_xpm[] = {
"16 16 150 2",
"  	c None",
". 	c #CDCDCD",
"+ 	c #B5B5B5",
"@ 	c #B2B2B2",
"# 	c #ACACAC",
"$ 	c #A9A9A9",
"% 	c #A8A8A8",
"& 	c #A6A6A6",
"* 	c #B4B4B4",
"= 	c #747474",
"- 	c #494949",
"; 	c #454545",
"> 	c #2F2F2F",
", 	c #1F1F1F",
"' 	c #1E1E1E",
") 	c #313131",
"! 	c #969696",
"~ 	c #6B6B6B",
"{ 	c #6A6A6A",
"] 	c #565656",
"^ 	c #262626",
"/ 	c #010101",
"( 	c #000000",
"_ 	c #181818",
": 	c #909090",
"< 	c #696969",
"[ 	c #616161",
"} 	c #AAAAAA",
"| 	c #323232",
"1 	c #141414",
"2 	c #1D1D1D",
"3 	c #040404",
"4 	c #282828",
"5 	c #989898",
"6 	c #757575",
"7 	c #AFAFAF",
"8 	c #393939",
"9 	c #212121",
"0 	c #3B3B3B",
"a 	c #8F8F8F",
"b 	c #9B9B9B",
"c 	c #979797",
"d 	c #999999",
"e 	c #959595",
"f 	c #9E9EA0",
"g 	c #838384",
"h 	c #B8B8B8",
"i 	c #8D8D8D",
"j 	c #858585",
"k 	c #A3A3A3",
"l 	c #5C5C5C",
"m 	c #555555",
"n 	c #3E3E3E",
"o 	c #343434",
"p 	c #818184",
"q 	c #757576",
"r 	c #A8A8AB",
"s 	c #BABABB",
"t 	c #ADADAD",
"u 	c #777777",
"v 	c #8B8B8B",
"w 	c #4D4D4D",
"x 	c #272727",
"y 	c #111112",
"z 	c #7B7B7E",
"A 	c #727272",
"B 	c #B7BAB9",
"C 	c #B5C1B8",
"D 	c #C0C3C0",
"E 	c #C0C0C0",
"F 	c #A5A5A6",
"G 	c #A2A2A2",
"H 	c #9E9E9E",
"I 	c #3A3A3A",
"J 	c #222222",
"K 	c #151515",
"L 	c #121212",
"M 	c #717172",
"N 	c #BCCCBF",
"O 	c #81BE89",
"P 	c #A5B4A5",
"Q 	c #B7B7B7",
"R 	c #AEAEAE",
"S 	c #A7A7A8",
"T 	c #9F9FA0",
"U 	c #737374",
"V 	c #ABAFAC",
"W 	c #8E9D8F",
"X 	c #9BA09C",
"Y 	c #A1A1A2",
"Z 	c #9B9B9C",
"` 	c #A0A0A1",
" .	c #ABABAB",
"..	c #6C6C6C",
"+.	c #5A5A5A",
"@.	c #595959",
"#.	c #515152",
"$.	c #4C4C4D",
"%.	c #555556",
"&.	c #87878A",
"*.	c #78787A",
"=.	c #7B7B7C",
"-.	c #818182",
";.	c #7E7E7E",
">.	c #666666",
",.	c #878788",
"'.	c #BABABA",
").	c #858586",
"!.	c #909091",
"~.	c #909092",
"{.	c #A9A48F",
"].	c #5D523A",
"^.	c #A9ACAA",
"/.	c #B1B1B3",
"(.	c #929293",
"_.	c #737373",
":.	c #7C7C7C",
"<.	c #7A7A7A",
"[.	c #F2CD40",
"}.	c #F1CA38",
"|.	c #CA9D44",
"1.	c #BEB2A0",
"2.	c #B9C4BB",
"3.	c #94C199",
"4.	c #C1C4C1",
"5.	c #BDBDBD",
"6.	c #ADADAE",
"7.	c #939395",
"8.	c #828282",
"9.	c #878787",
"0.	c #777778",
"a.	c #636363",
"b.	c #828283",
"c.	c #817B68",
"d.	c #B0892A",
"e.	c #CB900D",
"f.	c #8D7042",
"g.	c #878784",
"h.	c #A9B3AB",
"i.	c #7DAF81",
"j.	c #ADB0AE",
"k.	c #9D9D9D",
"l.	c #9E9E9F",
"m.	c #808081",
"n.	c #8B8C8D",
"o.	c #828584",
"p.	c #848486",
"q.	c #838385",
"r.	c #858587",
"s.	c #606060",
". + @ # $ % & * =               ",
"@ - ; > , ' ) ! ~ {             ",
"# ; ] ^ / ( _ : < [             ",
"} | ^ 1 ( ( _ : < [             ",
"$ 2 / ( ( 3 4 5 6 =             ",
"7 8 9 9 9 0 a $ b c d ! e f g   ",
"h a i a j e k l m n 4 4 o p q   ",
"  r s t u v d w m x ( ( y z A [ ",
"B C D E F G H I J K ( ( L z M [ ",
"N O P Q R S T J ( ( ( ( y z U   ",
"V W X Y Z `  ...+.@.#.$.%.&.*.  ",
"  =.-.;.>.,.} R 7 '.H ).!.~.    ",
"      {.].    ^./.Q (.U _.:.<.A ",
"    [.}.|.1.2.3.4.5.6.7.8.9.0.a.",
"b.c.d.e.f.g.h.i.j.7 & k.k.l.m.[ ",
"            n.o.p.p.q.r.,.q.M s."};
