/* XPM */
static char * connecting2_xpm[] = {
"16 16 89 1",
" 	c None",
".	c #D1D1D1",
"+	c #CDCDCD",
"@	c #CECECE",
"#	c #C6C6C6",
"$	c #BCBCBC",
"%	c #B9B9B9",
"&	c #717171",
"*	c #C8C8C8",
"=	c #59FF59",
"-	c #66FF66",
";	c #4CFF4C",
">	c #00E500",
",	c #00D800",
"'	c #B2B2B2",
")	c #666666",
"!	c #6B6B6B",
"~	c #C4C4C4",
"{	c #8CFF8C",
"]	c #99FF99",
"^	c #4CF259",
"/	c #26E533",
"(	c #5F5F5F",
"_	c #4CE566",
":	c #0CD826",
"<	c #00CC19",
"[	c #3FF24C",
"}	c #0CF226",
"|	c #0CD83F",
"1	c #0CE526",
"2	c #C2C2C2",
"3	c #BFBFBF",
"4	c #B4B4B5",
"5	c #B0B0B2",
"6	c #BEBEBE",
"7	c #B5B5B5",
"8	c #171717",
"9	c #2F2F2F",
"0	c #000000",
"a	c #A0A0A4",
"b	c #C3C3C3",
"c	c #ACACAC",
"d	c #656565",
"e	c #BBBBBD",
"f	c #CBCBCB",
"g	c #ABABAC",
"h	c #A0A0A0",
"i	c #33B23F",
"j	c #A3A3A3",
"k	c #838384",
"l	c #B2B2B4",
"m	c #A9A9AB",
"n	c #606060",
"o	c #5C5C5C",
"p	c #545455",
"q	c #505052",
"r	c #777777",
"s	c #555555",
"t	c #A2A2A2",
"u	c #838383",
"v	c #969696",
"w	c #9B9B9D",
"x	c #A7A7A7",
"y	c #333333",
"z	c #A8A8A8",
"A	c #AFAFB1",
"B	c #8C8C8D",
"C	c #7B7B7B",
"D	c #7E7E7E",
"E	c #727272",
"F	c #D7D7D7",
"G	c #FFEE33",
"H	c #FFE533",
"I	c #EBAC39",
"J	c #85D191",
"K	c #8E8E8E",
"L	c #949494",
"M	c #757576",
"N	c #717172",
"O	c #595959",
"P	c #AC690C",
"Q	c #BF6C00",
"R	c #6C5C40",
"S	c #72A572",
"T	c #999999",
"U	c #9B9B9B",
"V	c #7F7F81",
"W	c #8A8A8D",
"X	c #6F6F70",
".+@###$%&       ",
"*=--;>,')!      ",
"~{]]]^/')(      ",
"~{]]]_:')(      ",
"~;-]]_<')(      ",
"~=[}|1.@@23$45& ",
"6%%%%7*898000a)!",
" abcd(~9(8000a)(",
"e~f*gh~888000a)(",
"*i''jk~000000a) ",
"lmmmml*nnopqqa) ",
" ))rs)'''#tuvw  ",
"   xy  zA$B!&CDE",
" FGHIF*J*6%wKLM(",
"NOPQROfS''jTULV(",
"      WVVVVVVVX("};
