/* XPM */
static char * MyNet_xpm[] = {
"32 32 22 1",
" 	c None",
".	c #D7D7D7",
"+	c #DDDDDD",
"@	c #CCCCCC",
"#	c #C0C0C0",
"$	c #777777",
"%	c #B2B2B2",
"&	c #666666",
"*	c #000000",
"=	c #5F5F5F",
"-	c #A0A0A4",
";	c #808080",
">	c #33FF66",
",	c #339933",
"'	c #969696",
")	c #333333",
"!	c #868686",
"~	c #FFCC33",
"{	c #FF9900",
"]	c #FFFF33",
"^	c #804000",
"/	c #333300",
"...+++@@@@@@@###$               ",
".###########%%%%&$              ",
".#************%%&&$             ",
".%*====*******%%&&=             ",
".%*===********%%&&=             ",
".%*====*******%%&&=             ",
".%*==*=*******%%&&=             ",
".%************%%&&=             ",
".%************%%&&=             ",
".%************%%&&=             ",
".%**********++++++@@@@@#####$   ",
".%**********.######%%%%%%---&$  ",
".##########%.#************--&&$ ",
"%%%%%%%%%%%%.%*====*******--&&= ",
"     @@%$=  .%*===********--&&= ",
"  --%@%;====.%*====*******--&&= ",
"--%%@%#%-$;;.%*==*=*******--&&= ",
".........###.%************--&&= ",
".#>,%%%%%%'-.%************--&&= ",
".%,,%%%%%$$=.%************--&&  ",
".%%%%%%%%%%..%************--&&  ",
"------------.######%%-------&   ",
" &&&&&&&&&&&%%%%%%###''''''-&   ",
"      %=)         @@%;=         ",
"      .$)      '--@%;====$$$$$$$",
"      .$)    -%%%@%#%-$$$$;;!!$&",
"     ~~~~{  %......###--!!$$$===",
" ...]]]]{%...#>,#%%%%%''''%%-===",
"-;;;{{{{;;;;.#,,%%%%%$$&==$$-===",
" ))))^^^^/)).#%%%%%%%%%...%%-===",
"            -----------------===",
"             ================== "};
